<?xml version="1.0" standalone="no"?>
<!DOCTYPE svg PUBLIC "-//W3C//DTD SVG 20010904//EN"
 "http://www.w3.org/TR/2001/REC-SVG-20010904/DTD/svg10.dtd">
<svg version="1.0" xmlns="http://www.w3.org/2000/svg"
 width="512.000000pt" height="512.000000pt" viewBox="0 0 512.000000 512.000000"
 preserveAspectRatio="xMidYMid meet">
<metadata>
Created by potrace 1.11, written by Peter Selinger 2001-2013
</metadata>
<g transform="translate(0.000000,512.000000) scale(0.100000,-0.100000)"
fill="#000000" stroke="none">
<path d="M2504 5001 c-53 -9 -124 -52 -156 -93 -14 -18 -112 -208 -218 -423
-106 -214 -241 -489 -301 -610 -59 -121 -120 -233 -134 -248 -55 -58 -116 -87
-220 -101 -22 -4 -51 -8 -65 -11 -14 -2 -47 -7 -75 -10 -27 -4 -59 -8 -70 -10
-198 -28 -253 -36 -270 -39 -11 -2 -42 -7 -70 -10 -27 -4 -77 -11 -110 -16
-33 -5 -78 -11 -100 -15 -22 -3 -67 -10 -100 -15 -33 -5 -82 -11 -110 -15 -27
-3 -79 -10 -115 -16 -36 -6 -83 -12 -105 -15 -171 -21 -273 -119 -280 -269 -5
-95 22 -151 113 -242 38 -37 217 -212 398 -388 521 -508 530 -518 553 -563 37
-72 38 -136 5 -307 -2 -11 -13 -74 -24 -140 -20 -122 -23 -134 -41 -240 -14
-78 -17 -92 -24 -140 -3 -22 -7 -47 -10 -55 -2 -8 -6 -32 -9 -52 -3 -21 -9
-55 -12 -75 -3 -21 -7 -45 -9 -53 -3 -8 -7 -33 -10 -55 -4 -22 -8 -51 -11 -65
-23 -141 -37 -218 -41 -235 -30 -138 17 -257 129 -324 49 -29 72 -35 144 -35
73 0 66 -3 554 256 58 30 164 86 235 123 72 37 162 85 200 105 39 21 132 70
207 109 l137 70 78 -3 c83 -3 103 -11 428 -186 70 -37 162 -85 410 -215 72
-38 182 -96 245 -130 222 -119 248 -129 320 -129 79 0 141 26 195 79 73 73 94
164 70 293 -7 37 -16 85 -19 107 -3 22 -9 53 -12 68 -3 16 -7 38 -9 50 -3 25
-33 201 -39 232 -2 11 -9 52 -16 92 -6 39 -13 77 -14 85 -6 30 -16 89 -31 178
-9 52 -25 145 -36 205 -33 189 -34 198 -33 270 1 52 7 81 24 115 24 47 43 66
534 545 170 165 345 336 391 381 45 44 95 103 111 130 25 42 29 59 28 124 -1
162 -99 261 -284 284 -25 4 -58 8 -75 11 -16 2 -48 7 -70 10 -22 3 -71 10
-110 15 -38 6 -88 13 -110 16 -22 3 -47 7 -55 9 -8 2 -37 7 -65 10 -27 3 -61
7 -75 9 -14 3 -41 7 -60 10 -19 2 -100 14 -180 26 -80 11 -161 23 -180 26 -19
2 -66 9 -105 15 -38 6 -86 12 -105 15 -68 9 -116 26 -162 57 -27 18 -48 35
-48 38 0 3 -8 14 -18 25 -10 10 -70 125 -134 254 -395 802 -484 979 -509 1011
-55 70 -164 107 -265 90z"/>
</g>
</svg>
